<svg width="257" height="184" viewBox="0 0 257 184" fill="none" xmlns="http://www.w3.org/2000/svg">
<g filter="url(#filter0_d_98_1750)">
<path d="M166.657 0.20447C208.621 -2.6007 233 23.8876 233 53.1022C233 71.4731 224.46 82.9817 203.425 97.1396C193.834 103.596 180.257 106 166.657 106C138.385 106 90.2105 91.923 66.7423 72.0536C63.599 69.3922 60.8989 66.6269 58.7492 63.7777C56.2335 60.4433 52.3547 56.3082 54.7526 49.8963L58.7492 43.0837C62.3461 37.8741 66.5036 34.3764 74.7355 28.9723C79.8792 25.5955 85.6994 22.3985 91.9208 19.4486C101.557 14.8794 112.156 10.903 122.694 7.76974C131.748 5.0779 140.757 3.00832 149.072 1.71969C155.437 0.733273 161.396 0.20447 166.657 0.20447Z" fill="url(#paint0_radial_98_1750)" shape-rendering="crispEdges"/>
</g>
<path d="M119.695 60C119.148 60 118.875 59.707 118.875 59.1211V44.0742C118.875 43.4883 119.148 43.1953 119.695 43.1953H124.078C126.891 43.1953 128.84 43.6523 129.926 44.5664C131.02 45.4805 131.566 46.7773 131.566 48.457C131.566 50.1367 131.02 51.4336 129.926 52.3477C128.84 53.2617 126.891 53.7188 124.078 53.7188H122.297V59.1211C122.297 59.707 122.023 60 121.477 60H119.695ZM122.297 50.8594H124.066C125.629 50.8594 126.691 50.6758 127.254 50.3086C127.816 49.9336 128.098 49.3164 128.098 48.457C128.098 47.5977 127.816 46.9844 127.254 46.6172C126.691 46.2422 125.629 46.0547 124.066 46.0547H122.297V50.8594ZM135.459 60C134.991 60 134.756 59.7656 134.756 59.2969V48.3984C134.756 47.9297 134.991 47.6953 135.459 47.6953H137.311C137.78 47.6953 138.014 47.9297 138.014 48.3984V49.3594H138.061C138.264 48.8594 138.604 48.418 139.08 48.0352C139.557 47.6523 140.12 47.4609 140.768 47.4609C141.213 47.4609 141.58 47.5156 141.87 47.625C142.143 47.7266 142.248 47.9141 142.186 48.1875L141.858 49.582C141.788 49.8945 141.577 49.9883 141.225 49.8633C141.022 49.793 140.827 49.7578 140.639 49.7578C139.889 49.7578 139.268 50.207 138.776 51.1055C138.284 52.0039 138.038 53.3125 138.038 55.0312V59.2969C138.038 59.7656 137.803 60 137.334 60H135.459ZM143.911 53.8477C143.911 51.8711 144.403 50.3125 145.388 49.1719C146.38 48.0312 147.778 47.4609 149.583 47.4609C151.677 47.4609 153.231 48 154.247 49.0781C155.263 50.1562 155.77 51.8906 155.77 54.2812C155.77 54.75 155.552 54.9844 155.114 54.9844H147.38C147.505 56.2812 147.825 57.0977 148.341 57.4336C148.856 57.7695 149.454 57.9375 150.134 57.9375C150.782 57.9375 151.278 57.8516 151.622 57.6797C151.966 57.5078 152.255 57.2734 152.489 56.9766C152.755 56.6328 153.083 56.5781 153.473 56.8125L154.645 57.5273C155.106 57.8086 155.173 58.1445 154.845 58.5352C154.368 59.1055 153.809 59.5312 153.169 59.8125C152.528 60.0938 151.516 60.2344 150.134 60.2344C147.891 60.2344 146.294 59.6641 145.341 58.5234C144.388 57.3828 143.911 55.8242 143.911 53.8477ZM147.391 52.6406H152.489C152.489 51.7969 152.278 51.1094 151.856 50.5781C151.434 50.0391 150.763 49.7695 149.841 49.7695C149.106 49.7695 148.524 50.0273 148.095 50.543C147.665 51.0508 147.43 51.75 147.391 52.6406ZM158.116 48.6094C157.921 48 158.05 47.6953 158.503 47.6953H160.601C160.968 47.6953 161.202 47.8945 161.304 48.293L163.12 55.1602C163.222 55.543 163.304 55.9219 163.366 56.2969C163.437 56.6719 163.48 56.9766 163.495 57.2109H163.566C163.581 56.9766 163.62 56.6719 163.683 56.2969C163.753 55.9219 163.839 55.543 163.941 55.1602L165.757 48.293C165.859 47.8945 166.093 47.6953 166.46 47.6953H168.558C169.011 47.6953 169.14 48 168.945 48.6094L165.546 59.2148C165.382 59.7383 165.097 60 164.691 60H162.37C161.964 60 161.679 59.7383 161.515 59.2148L158.116 48.6094Z" fill="white"/>
<defs>
<filter id="filter0_d_98_1750" x="0" y="0" width="257" height="184" filterUnits="userSpaceOnUse" color-interpolation-filters="sRGB">
<feFlood flood-opacity="0" result="BackgroundImageFix"/>
<feColorMatrix in="SourceAlpha" type="matrix" values="0 0 0 0 0 0 0 0 0 0 0 0 0 0 0 0 0 0 127 0" result="hardAlpha"/>
<feOffset dx="-15" dy="39"/>
<feGaussianBlur stdDeviation="19.5"/>
<feComposite in2="hardAlpha" operator="out"/>
<feColorMatrix type="matrix" values="0 0 0 0 0 0 0 0 0 0 0 0 0 0 0 0 0 0 0.25 0"/>
<feBlend mode="normal" in2="BackgroundImageFix" result="effect1_dropShadow_98_1750"/>
<feBlend mode="normal" in="SourceGraphic" in2="effect1_dropShadow_98_1750" result="shape"/>
</filter>
<radialGradient id="paint0_radial_98_1750" cx="0" cy="0" r="1" gradientUnits="userSpaceOnUse" gradientTransform="translate(186.64 5.81484) rotate(120.446) scale(96.2217 233.877)">
<stop stop-color="#FBC75B" stop-opacity="0.9"/>
<stop offset="1" stop-color="#D07F44"/>
</radialGradient>
</defs>
</svg>
