<svg width="257" height="184" viewBox="0 0 257 184" fill="none" xmlns="http://www.w3.org/2000/svg">
<g filter="url(#filter0_d_98_1747)">
<path d="M120.343 0.20447C78.3791 -2.6007 54 23.8876 54 53.1022C54 71.4731 62.5398 82.9817 83.5747 97.1396C93.1665 103.596 106.743 106 120.343 106C148.615 106 196.79 91.923 220.258 72.0536C223.401 69.3922 226.101 66.6269 228.251 63.7777C230.767 60.4433 234.645 56.3082 232.247 49.8963L228.251 43.0837C224.654 37.8741 220.496 34.3764 212.264 28.9723C207.121 25.5955 201.301 22.3985 195.079 19.4486C185.443 14.8794 174.844 10.903 164.306 7.76974C155.252 5.0779 146.243 3.00832 137.928 1.71969C131.563 0.733273 125.604 0.20447 120.343 0.20447Z" fill="url(#paint0_radial_98_1747)" shape-rendering="crispEdges"/>
</g>
<path d="M118.695 60C118.148 60 117.875 59.707 117.875 59.1211V44.0742C117.875 43.4883 118.148 43.1953 118.695 43.1953H120.43C121.102 43.1953 121.609 43.4688 121.953 44.0156L127.93 53.6133H128.012C127.973 53.1445 127.953 52.6758 127.953 52.207V44.0742C127.953 43.4883 128.227 43.1953 128.773 43.1953H130.555C131.102 43.1953 131.375 43.4883 131.375 44.0742V59.1211C131.375 59.707 131.102 60 130.555 60H128.938C128.266 60 127.758 59.7266 127.414 59.1797L121.32 49.4062H121.238C121.277 49.875 121.297 50.3438 121.297 50.8125V59.1211C121.297 59.707 121.023 60 120.477 60H118.695ZM134.788 53.8477C134.788 51.8711 135.28 50.3125 136.264 49.1719C137.256 48.0312 138.655 47.4609 140.459 47.4609C142.553 47.4609 144.108 48 145.123 49.0781C146.139 50.1562 146.647 51.8906 146.647 54.2812C146.647 54.75 146.428 54.9844 145.991 54.9844H138.256C138.381 56.2812 138.702 57.0977 139.217 57.4336C139.733 57.7695 140.33 57.9375 141.01 57.9375C141.659 57.9375 142.155 57.8516 142.498 57.6797C142.842 57.5078 143.131 57.2734 143.366 56.9766C143.631 56.6328 143.959 56.5781 144.35 56.8125L145.522 57.5273C145.983 57.8086 146.049 58.1445 145.721 58.5352C145.245 59.1055 144.686 59.5312 144.045 59.8125C143.405 60.0938 142.393 60.2344 141.01 60.2344C138.768 60.2344 137.17 59.6641 136.217 58.5234C135.264 57.3828 134.788 55.8242 134.788 53.8477ZM138.268 52.6406H143.366C143.366 51.7969 143.155 51.1094 142.733 50.5781C142.311 50.0391 141.639 49.7695 140.717 49.7695C139.983 49.7695 139.401 50.0273 138.971 50.543C138.541 51.0508 138.307 51.75 138.268 52.6406ZM149.872 60C149.2 60 149.059 59.7148 149.45 59.1445L153.329 53.5195L149.907 48.5508C149.516 47.9805 149.657 47.6953 150.329 47.6953H152.544C152.895 47.6953 153.161 47.8516 153.341 48.1641L155.157 51.3281L156.973 48.1641C157.153 47.8516 157.419 47.6953 157.77 47.6953H159.985C160.665 47.6953 160.805 47.9805 160.407 48.5508L156.962 53.5195L160.864 59.1445C161.263 59.7148 161.122 60 160.442 60H158.227C157.884 60 157.618 59.8438 157.43 59.5312L155.157 55.7109L152.884 59.5312C152.696 59.8438 152.43 60 152.087 60H149.872ZM162.718 50.0391C162.257 50.0391 162.027 49.8438 162.027 49.4531V48.2812C162.027 47.8906 162.257 47.6953 162.718 47.6953H163.515V47.2852C163.515 46.9336 163.597 46.6133 163.761 46.3242L164.663 44.7422C164.835 44.4453 165.038 44.2969 165.273 44.2969H166.093C166.562 44.2969 166.796 44.5312 166.796 45V47.6953H168.695C169.155 47.6953 169.386 47.8906 169.386 48.2812V49.4531C169.386 49.8438 169.155 50.0391 168.695 50.0391H166.796V55.8516C166.796 56.6484 166.851 57.2227 166.96 57.5742C167.077 57.918 167.374 58.0898 167.851 58.0898C168.093 58.0898 168.366 58.0508 168.671 57.9727C168.976 57.8867 169.214 57.8047 169.386 57.7266C169.659 57.6016 169.839 57.6914 169.925 57.9961L170.277 59.332C170.347 59.5977 170.245 59.793 169.972 59.918C169.714 60.0352 169.359 60.1406 168.905 60.2344C168.46 60.3359 168.011 60.3867 167.558 60.3867C166.441 60.3867 165.487 60.1562 164.698 59.6953C163.909 59.2344 163.515 58.2852 163.515 56.8477V50.0391H162.718Z" fill="white"/>
<defs>
<filter id="filter0_d_98_1747" x="0" y="0" width="257" height="184" filterUnits="userSpaceOnUse" color-interpolation-filters="sRGB">
<feFlood flood-opacity="0" result="BackgroundImageFix"/>
<feColorMatrix in="SourceAlpha" type="matrix" values="0 0 0 0 0 0 0 0 0 0 0 0 0 0 0 0 0 0 127 0" result="hardAlpha"/>
<feOffset dx="-15" dy="39"/>
<feGaussianBlur stdDeviation="19.5"/>
<feComposite in2="hardAlpha" operator="out"/>
<feColorMatrix type="matrix" values="0 0 0 0 0 0 0 0 0 0 0 0 0 0 0 0 0 0 0.25 0"/>
<feBlend mode="normal" in2="BackgroundImageFix" result="effect1_dropShadow_98_1747"/>
<feBlend mode="normal" in="SourceGraphic" in2="effect1_dropShadow_98_1747" result="shape"/>
</filter>
<radialGradient id="paint0_radial_98_1747" cx="0" cy="0" r="1" gradientUnits="userSpaceOnUse" gradientTransform="translate(171.499 17.2319) rotate(120.136) scale(93.1376 298.731)">
<stop stop-color="#B294EB" stop-opacity="0.9"/>
<stop offset="1" stop-color="#7343CD"/>
</radialGradient>
</defs>
</svg>
