<svg width="56" height="32" viewBox="0 0 56 32" fill="none" xmlns="http://www.w3.org/2000/svg">
<g filter="url(#filter0_i_121_318)">
<rect y="3" width="54" height="24.3" rx="12.15" fill="#FF9736"/>
</g>
<path d="M25.1687 8.68347C27.6564 6.44766 31.7838 9.75103 31.5299 12.497C29.6341 9.91123 28.2638 10.4964 27.5544 11.185C26.0154 12.6786 23.5104 10.174 25.1687 8.68347Z" fill="#FFD954"/>
<path d="M27.1963 16.481C26.797 14.9711 29.0489 13.9594 30.1359 14.6498C28.6576 14.8869 28.6089 15.581 28.7439 16.0224C29.0369 16.9801 27.4625 17.4876 27.1963 16.481Z" fill="#FFD954"/>
<g filter="url(#filter1_d_121_318)">
<circle cx="41.85" cy="15.15" r="9.45" fill="#FFDB5A"/>
<circle cx="41.85" cy="15.15" r="8.91" fill="#FFE4B0"/>
<path fill-rule="evenodd" clip-rule="evenodd" d="M36.6394 21.4843C35.4911 20.6558 34.5727 19.2146 34.0921 17.6062C33.9269 17.0535 34.3332 16.5176 34.9066 16.455L39.3112 15.9744C40.151 15.8827 40.7191 16.8094 40.2563 17.5162L37.8452 21.1989C37.5755 21.6109 37.0387 21.7723 36.6394 21.4843ZM34.7025 15.7434L38.9969 15.3019C39.8793 15.2111 40.2155 14.1016 39.5318 13.5364L36.2484 10.8218C35.8856 10.5218 35.3581 10.514 35.0569 10.8757C34.3888 11.6781 33.6523 13.0644 33.676 14.8916C33.6829 15.4249 34.1719 15.7979 34.7025 15.7434ZM36.7506 10.0269L39.9951 13.087C40.6419 13.6971 41.7036 13.2228 41.6809 12.334L41.5728 8.10402C41.5601 7.60743 41.1826 7.18652 40.6869 7.21824C38.9865 7.32704 37.285 8.26168 36.6044 9.10368C36.3742 9.38841 36.4842 9.77572 36.7506 10.0269ZM42.198 12.3554L42.3919 8.3678C42.4177 7.83676 42.8568 7.43296 43.3757 7.5485C44.2909 7.75223 45.5566 8.20232 46.6468 8.91968C47.1262 9.23518 47.1413 9.90239 46.7337 10.3064L43.9007 13.1143C43.2527 13.7565 42.1536 13.2667 42.198 12.3554ZM48.6636 16.6111L44.4699 16.0764C43.6151 15.9675 43.0319 16.9183 43.5165 17.6308L45.9171 21.1604C46.2286 21.6183 46.8579 21.7384 47.2536 21.3509C48.1905 20.4335 48.9317 19.1632 49.4455 17.8724C49.6737 17.2991 49.2757 16.6892 48.6636 16.6111ZM50.0244 14.5687C49.8426 12.9206 49.2009 11.5867 48.6267 10.7398C48.3218 10.29 47.7017 10.2796 47.3093 10.6555L44.0871 13.742C43.4436 14.3583 43.8667 15.4449 44.7575 15.4639L49.0643 15.5556C49.6204 15.5675 50.0853 15.1216 50.0244 14.5687ZM38.6218 21.1767L40.8913 17.6033C41.2841 16.9848 42.1868 16.9848 42.5796 17.6033L45.1104 21.5885C45.3893 22.0276 45.2757 22.6033 44.7876 22.7832C43.4399 23.2801 41.0846 23.508 38.9459 22.4836C38.4564 22.2491 38.3308 21.6349 38.6218 21.1767Z" fill="url(#paint0_radial_121_318)"/>
<mask id="mask0_121_318" style="mask-type:alpha" maskUnits="userSpaceOnUse" x="33" y="7" width="18" height="17">
<path fill-rule="evenodd" clip-rule="evenodd" d="M36.6394 21.4843C35.4911 20.6558 34.5727 19.2146 34.0921 17.6062C33.9269 17.0535 34.3332 16.5176 34.9066 16.455L39.3112 15.9744C40.151 15.8827 40.7191 16.8094 40.2563 17.5162L37.8452 21.1989C37.5755 21.6109 37.0387 21.7723 36.6394 21.4843ZM34.7025 15.7434L38.9969 15.3019C39.8793 15.2111 40.2155 14.1016 39.5318 13.5364L36.2484 10.8218C35.8856 10.5218 35.3581 10.514 35.0569 10.8757C34.3888 11.6781 33.6523 13.0644 33.676 14.8916C33.6829 15.4249 34.1719 15.7979 34.7025 15.7434ZM36.7506 10.0269L39.9951 13.087C40.6419 13.6971 41.7036 13.2228 41.6809 12.334L41.5728 8.10402C41.5601 7.60743 41.1826 7.18652 40.6869 7.21824C38.9865 7.32704 37.285 8.26168 36.6044 9.10368C36.3742 9.38841 36.4842 9.77572 36.7506 10.0269ZM42.198 12.3554L42.3919 8.3678C42.4177 7.83676 42.8568 7.43296 43.3757 7.5485C44.2909 7.75223 45.5566 8.20232 46.6468 8.91968C47.1262 9.23518 47.1413 9.90239 46.7337 10.3064L43.9007 13.1143C43.2527 13.7565 42.1536 13.2667 42.198 12.3554ZM48.6636 16.6111L44.4699 16.0764C43.6151 15.9675 43.0319 16.9183 43.5165 17.6308L45.9171 21.1604C46.2286 21.6183 46.8579 21.7384 47.2536 21.3509C48.1905 20.4335 48.9317 19.1632 49.4455 17.8724C49.6737 17.2991 49.2757 16.6892 48.6636 16.6111ZM50.0244 14.5687C49.8426 12.9206 49.2009 11.5867 48.6267 10.7398C48.3218 10.29 47.7017 10.2796 47.3093 10.6555L44.0871 13.742C43.4436 14.3583 43.8667 15.4449 44.7575 15.4639L49.0643 15.5556C49.6204 15.5675 50.0853 15.1216 50.0244 14.5687ZM38.6218 21.1767L40.8913 17.6033C41.2841 16.9848 42.1868 16.9848 42.5796 17.6033L45.1104 21.5885C45.3893 22.0276 45.2757 22.6033 44.7876 22.7832C43.4399 23.2801 41.0846 23.508 38.9459 22.4836C38.4564 22.2491 38.3308 21.6349 38.6218 21.1767Z" fill="#FF8A35"/>
</mask>
<g mask="url(#mask0_121_318)">
<path d="M75.8686 65.0492C72.7018 67.1401 70.4092 64.9591 64.4669 64.9985C52.5823 65.0771 46.4338 58.8731 44.5175 54.2971C39.0315 45.4143 43.1193 43.2837 42.2388 34.2022C41.1853 23.3352 54.4469 17.2999 59.9004 17.0464C63.2611 17.3538 70.8519 17.7355 74.3292 16.8037C78.6759 15.639 89.5091 25.1596 92.4162 32.1452C95.3233 39.1308 92.007 53.4226 88.6751 54.8884C82.6554 57.5367 79.827 62.4356 75.8686 65.0492Z" stroke="#FAB228" stroke-opacity="0.5" stroke-width="0.5"/>
<path d="M88.1599 31.1297C90.2233 34.0055 89.4226 41.0295 89.2232 43.533C90.4075 51.76 83.4781 56.5094 79.2854 58.4612C71.211 63.8959 71.5878 61.6325 63.1601 62.7819C53.0756 64.1573 46.0738 53.3007 45.6386 48.227C45.8021 45.0836 45.7547 38.0313 44.8856 34.7877C42.2367 24.9021 52.3532 18.2888 59.2921 19.2171C66.2833 20.1524 76.8782 16.9545 78.3653 20.0069C81.0521 25.5215 85.5807 27.5349 88.1599 31.1297Z" stroke="#FAB228" stroke-opacity="0.5" stroke-width="0.5"/>
<path d="M54.0829 22.6635C56.2937 20.684 65.4368 20.7707 67.5502 20.907C74.3211 19.6407 79.4124 24.0276 81.4418 27.8958C86.7524 35.3119 87.9889 34.9084 87.384 42.9108C86.3293 56.8637 74.8875 59.145 70.6839 59.6509C68.0385 59.5607 67.5214 59.5437 64.8899 60.4177C56.8699 63.0815 48.3804 52.0084 48.5006 45.5243C48.6218 38.9915 46.5671 30.4862 47.6817 27.9033C49.4014 23.9179 51.3194 25.1379 54.0829 22.6635Z" stroke="#FAB228" stroke-opacity="0.5" stroke-width="0.5"/>
<path d="M53.8466 53.6706C51.7618 52.0164 50.4528 43.9215 50.253 42.0329C48.1076 36.2398 49.9457 35.243 49.3192 29.7168C50.1417 23.8024 59.1079 27.6117 63.644 23.2903C69.2755 19.1932 78.1075 25.1089 84.0244 33.3914C84.3456 35.7434 83.8803 39.1719 85.0517 41.3655C88.6216 48.0508 80.2547 55.2208 74.5051 56.0971C68.7123 56.98 67.6527 60.5214 59.4481 58.5347C55.6648 57.6185 56.4525 55.7383 53.8466 53.6706Z" stroke="#FAB228" stroke-opacity="0.5" stroke-width="0.5"/>
<path d="M81.1973 50.1628C80.1273 52.0741 73.9175 53.6599 72.4092 54.0705C67.9845 56.575 65.4498 54.8456 61.0423 56.081C56.1288 56.1902 59.041 52.4761 54.0126 49.1647C50.5972 48.0093 50.1211 26.9137 54.4198 27.502C56.2885 26.9319 63.8435 25.7807 65.4718 24.5407C70.4342 20.7614 77.3595 26.6168 78.8273 31.173C80.3061 35.7635 83.3227 36.1589 82.787 43.0861C82.54 46.2804 82.5347 47.7737 81.1973 50.1628Z" stroke="#FAB228" stroke-opacity="0.5" stroke-width="0.5"/>
<path d="M53.8337 30.6023C54.8224 28.9996 58.5302 29.3193 61.5247 27.5657C65.4166 25.5755 67.5309 27.1533 71.3618 26.2526C75.5863 26.3377 72.9496 29.422 77.1482 32.4494C85.6987 43.7802 79.6809 51.7041 76.0098 51.0422C74.3839 51.4639 67.8524 52.1777 66.4086 53.1836C62.0085 56.2492 56.273 50.9674 55.1781 47.0003C54.075 43.0034 51.9969 42.5037 52.7092 36.5729C53.0377 33.8381 52.5979 32.6058 53.8337 30.6023Z" stroke="#FAB228" stroke-opacity="0.5" stroke-width="0.5"/>
<path d="M53.8337 30.6023C54.8224 28.9996 58.5302 29.3193 61.5247 27.5657C65.4166 25.5755 67.5309 27.1533 71.3618 26.2526C75.5863 26.3377 72.9496 29.422 77.1482 32.4494C85.6987 43.7802 79.6809 51.7041 76.0098 51.0422C74.3839 51.4639 67.8524 52.1777 66.4086 53.1836C62.0085 56.2492 56.273 50.9674 55.1781 47.0003C54.075 43.0034 51.9969 42.5037 52.7092 36.5729C53.0377 33.8381 52.5979 32.6058 53.8337 30.6023Z" stroke="#FAB228" stroke-opacity="0.5" stroke-width="0.5"/>
</g>
</g>
<defs>
<filter id="filter0_i_121_318" x="0" y="3" width="54" height="30.3" filterUnits="userSpaceOnUse" color-interpolation-filters="sRGB">
<feFlood flood-opacity="0" result="BackgroundImageFix"/>
<feBlend mode="normal" in="SourceGraphic" in2="BackgroundImageFix" result="shape"/>
<feColorMatrix in="SourceAlpha" type="matrix" values="0 0 0 0 0 0 0 0 0 0 0 0 0 0 0 0 0 0 127 0" result="hardAlpha"/>
<feMorphology radius="3" operator="erode" in="SourceAlpha" result="effect1_innerShadow_121_318"/>
<feOffset dy="6"/>
<feGaussianBlur stdDeviation="4"/>
<feComposite in2="hardAlpha" operator="arithmetic" k2="-1" k3="1"/>
<feColorMatrix type="matrix" values="0 0 0 0 0 0 0 0 0 0 0 0 0 0 0 0 0 0 0.1 0"/>
<feBlend mode="normal" in2="shape" result="effect1_innerShadow_121_318"/>
</filter>
<filter id="filter1_d_121_318" x="24.4" y="0.700012" width="30.9" height="30.9" filterUnits="userSpaceOnUse" color-interpolation-filters="sRGB">
<feFlood flood-opacity="0" result="BackgroundImageFix"/>
<feColorMatrix in="SourceAlpha" type="matrix" values="0 0 0 0 0 0 0 0 0 0 0 0 0 0 0 0 0 0 127 0" result="hardAlpha"/>
<feOffset dx="-2" dy="1"/>
<feGaussianBlur stdDeviation="3"/>
<feColorMatrix type="matrix" values="0 0 0 0 0 0 0 0 0 0 0 0 0 0 0 0 0 0 0.25 0"/>
<feBlend mode="normal" in2="BackgroundImageFix" result="effect1_dropShadow_121_318"/>
<feBlend mode="normal" in="SourceGraphic" in2="effect1_dropShadow_121_318" result="shape"/>
</filter>
<radialGradient id="paint0_radial_121_318" cx="0" cy="0" r="1" gradientUnits="userSpaceOnUse" gradientTransform="translate(41.8675 15.188) rotate(-15) scale(8.13671 8.1159)">
<stop stop-color="#FFA73F"/>
<stop offset="1" stop-color="#FFD335"/>
</radialGradient>
</defs>
</svg>
