<svg width="60" height="58" viewBox="0 0 60 58" fill="none" xmlns="http://www.w3.org/2000/svg">
<path d="M59.5 18C59.5 27.6649 51.6649 35.5 42 35.5C32.3361 35.5 24.5 27.6648 24.5 18C24.5 8.33614 32.3361 0.5 42 0.5C51.6648 0.5 59.5 8.33612 59.5 18Z" fill="white" stroke="black"/>
<path d="M35.5 18C36.8807 18 38 16.433 38 14.5C38 12.567 36.8807 11 35.5 11C34.1193 11 33 12.567 33 14.5C33 16.433 34.1193 18 35.5 18Z" fill="#664500"/>
<path d="M48.5 18C49.8807 18 51 16.433 51 14.5C51 12.567 49.8807 11 48.5 11C47.1193 11 46 12.567 46 14.5C46 16.433 47.1193 18 48.5 18Z" fill="#664500"/>
<path d="M32.665 27.871C32.843 28.032 33.109 28.042 33.3 27.9C33.339 27.871 37.222 25 42 25C46.766 25 50.662 27.871 50.7 27.9C50.891 28.042 51.157 28.03 51.335 27.871C51.512 27.711 51.552 27.447 51.429 27.243C51.3 27.029 48.212 22 42 22C35.788 22 32.699 27.028 32.571 27.243C32.448 27.448 32.487 27.711 32.665 27.871V27.871Z" fill="#664500"/>
<path d="M35.5 40C35.5 49.665 27.665 57.5 18 57.5C8.33502 57.5 0.5 49.665 0.5 40C0.5 30.335 8.33502 22.5 18 22.5C27.665 22.5 35.5 30.335 35.5 40Z" fill="white" stroke="black"/>
<path d="M18 47.5C22.7569 47.5 24.8275 45.665 24.9948 45.5042L24.9996 45.5011C24.9834 45.5642 24.7179 46.5507 23.7419 47.5235C22.766 48.4962 21.0358 49.5 18 49.5C14.9648 49.5 13.2345 48.4962 12.2585 47.5235C11.278 46.5463 11.0143 45.5554 11.0002 45.5003C11.0002 45.5003 11.0003 45.5004 11.0003 45.5004L11.0003 45.5004L11.0003 45.5004C11.1254 45.6237 13.1898 47.5 18 47.5ZM10.515 45.621L10.9971 45.4994L10.9973 45.4997L10.515 45.621Z" fill="white" stroke="black"/>
<path d="M14 35.5C14 36.3743 13.7461 37.145 13.3609 37.6843C12.975 38.2245 12.487 38.5 12 38.5C11.513 38.5 11.025 38.2245 10.6391 37.6843C10.2539 37.145 10 36.3743 10 35.5C10 34.6257 10.2539 33.855 10.6391 33.3157C11.025 32.7755 11.513 32.5 12 32.5C12.487 32.5 12.975 32.7755 13.3609 33.3157C13.7461 33.855 14 34.6257 14 35.5Z" fill="white" stroke="black"/>
<path d="M26 35.5C26 36.3743 25.7461 37.145 25.3609 37.6843C24.975 38.2245 24.487 38.5 24 38.5C23.513 38.5 23.025 38.2245 22.6391 37.6843C22.2539 37.145 22 36.3743 22 35.5C22 34.6257 22.2539 33.855 22.6391 33.3157C23.025 32.7755 23.513 32.5 24 32.5C24.487 32.5 24.975 32.7755 25.3609 33.3157C25.7461 33.855 26 34.6257 26 35.5Z" fill="white" stroke="black"/>
</svg>
