<svg width="70" height="33" viewBox="0 0 70 33" fill="none" xmlns="http://www.w3.org/2000/svg">
<g filter="url(#filter0_i_48_121)">
<rect x="0.340912" y="0.670532" width="67.8068" height="30.5131" rx="15.2565" fill="url(#paint0_linear_48_121)"/>
</g>
<mask id="mask0_48_121" style="mask-type:alpha" maskUnits="userSpaceOnUse" x="0" y="0" width="69" height="32">
<rect x="0.340912" y="0.670532" width="67.8068" height="30.5131" rx="15.2565" fill="url(#paint1_linear_48_121)"/>
</mask>
<g mask="url(#mask0_48_121)">
<path d="M-1.01523 19.1479V24.2334L1.86656 37.6252C7.00858 39.4899 17.6656 43.321 19.1573 43.7279C21.022 44.2364 37.4651 46.9487 38.3127 47.2877C38.9908 47.5589 62.2146 39.0379 73.7418 34.7434L70.0124 20.504L55.0949 18.1308L40.1774 16.7746L34.5834 17.4527L25.938 14.5709L-1.01523 19.1479Z" fill="url(#paint2_linear_48_121)"/>
<path d="M14.4108 23.0468L8.1387 32.3702L39.6689 33.2178L32.3796 25.5895H31.5321L27.9722 20.165H26.277L21.7001 13.5538L16.6146 23.0468H14.4108Z" fill="url(#paint3_linear_48_121)"/>
<path d="M35.77 22.3687L29.4979 31.6922L61.028 32.5397L53.7388 24.9115H52.8912L49.3314 19.4869H47.6362L43.0592 12.8758L37.9737 22.3687H35.77Z" fill="url(#paint4_linear_48_121)"/>
<path d="M50.476 24.6601L42.7202 36.234L81.7091 37.2862L72.6955 27.8166H71.6474L67.2455 21.0827H65.1493L59.4896 12.8758L53.2011 24.6601H50.476Z" fill="url(#paint5_linear_48_121)"/>
<path d="M-1.39618 22.965L-9.15204 34.5389L29.8369 35.5911L20.8233 26.1215H19.7752L15.3733 19.3876H13.2771L7.61739 11.1806L1.32885 22.965H-1.39618Z" fill="url(#paint6_linear_48_121)"/>
</g>
<circle cx="56.8409" cy="31.1705" r="1.5" fill="url(#paint7_linear_48_121)"/>
<circle cx="67.3409" cy="14.6705" r="2" fill="url(#paint8_linear_48_121)"/>
<circle cx="38.8409" cy="22.1705" r="0.5" fill="url(#paint9_linear_48_121)"/>
<circle cx="31.8409" cy="10.1705" r="0.5" fill="url(#paint10_linear_48_121)"/>
<circle cx="50.3409" cy="15.6705" r="1" fill="url(#paint11_linear_48_121)"/>
<circle cx="15.5974" cy="15.9271" r="11.8662" fill="white"/>
<defs>
<filter id="filter0_i_48_121" x="0.340912" y="0.670532" width="67.8068" height="36.5131" filterUnits="userSpaceOnUse" color-interpolation-filters="sRGB">
<feFlood flood-opacity="0" result="BackgroundImageFix"/>
<feBlend mode="normal" in="SourceGraphic" in2="BackgroundImageFix" result="shape"/>
<feColorMatrix in="SourceAlpha" type="matrix" values="0 0 0 0 0 0 0 0 0 0 0 0 0 0 0 0 0 0 127 0" result="hardAlpha"/>
<feMorphology radius="3" operator="erode" in="SourceAlpha" result="effect1_innerShadow_48_121"/>
<feOffset dy="6"/>
<feGaussianBlur stdDeviation="4"/>
<feComposite in2="hardAlpha" operator="arithmetic" k2="-1" k3="1"/>
<feColorMatrix type="matrix" values="0 0 0 0 0 0 0 0 0 0 0 0 0 0 0 0 0 0 0.25 0"/>
<feBlend mode="normal" in2="shape" result="effect1_innerShadow_48_121"/>
</filter>
<linearGradient id="paint0_linear_48_121" x1="34.2443" y1="0.670532" x2="34.2443" y2="31.1836" gradientUnits="userSpaceOnUse">
<stop stop-color="#364BBA"/>
<stop offset="1" stop-color="#A979D9"/>
</linearGradient>
<linearGradient id="paint1_linear_48_121" x1="34.2443" y1="0.670532" x2="34.2443" y2="31.1836" gradientUnits="userSpaceOnUse">
<stop stop-color="#ABFAFF"/>
<stop offset="1" stop-color="#D5FFAB"/>
</linearGradient>
<linearGradient id="paint2_linear_48_121" x1="36.3633" y1="14.5709" x2="36.3633" y2="47.294" gradientUnits="userSpaceOnUse">
<stop stop-color="#6A86EB"/>
<stop offset="0.553516" stop-color="#010203"/>
</linearGradient>
<linearGradient id="paint3_linear_48_121" x1="23.9038" y1="13.5538" x2="23.9038" y2="33.2178" gradientUnits="userSpaceOnUse">
<stop offset="0.290234" stop-color="#6783CA"/>
<stop offset="1" stop-color="#271B59"/>
</linearGradient>
<linearGradient id="paint4_linear_48_121" x1="45.2629" y1="12.8758" x2="45.2629" y2="32.5397" gradientUnits="userSpaceOnUse">
<stop offset="0.290234" stop-color="#6783CA"/>
<stop offset="1" stop-color="#271B59"/>
</linearGradient>
<linearGradient id="paint5_linear_48_121" x1="62.2146" y1="12.8758" x2="62.2146" y2="37.2862" gradientUnits="userSpaceOnUse">
<stop offset="0.290234" stop-color="#6783CA"/>
<stop offset="1" stop-color="#271B59"/>
</linearGradient>
<linearGradient id="paint6_linear_48_121" x1="10.3424" y1="11.1806" x2="10.3424" y2="35.5911" gradientUnits="userSpaceOnUse">
<stop offset="0.290234" stop-color="#6783CA"/>
<stop offset="1" stop-color="#271B59"/>
</linearGradient>
<linearGradient id="paint7_linear_48_121" x1="56.8409" y1="29.6705" x2="56.8409" y2="32.6705" gradientUnits="userSpaceOnUse">
<stop stop-color="#FFFEDA"/>
<stop offset="1" stop-color="#FFFEDA" stop-opacity="0.59"/>
</linearGradient>
<linearGradient id="paint8_linear_48_121" x1="67.3409" y1="12.6705" x2="67.3409" y2="16.6705" gradientUnits="userSpaceOnUse">
<stop stop-color="#FFFEDA"/>
<stop offset="1" stop-color="#FFFEDA" stop-opacity="0.59"/>
</linearGradient>
<linearGradient id="paint9_linear_48_121" x1="38.8409" y1="21.6705" x2="38.8409" y2="22.6705" gradientUnits="userSpaceOnUse">
<stop stop-color="#FFFEDA"/>
<stop offset="1" stop-color="#FFFEDA" stop-opacity="0.59"/>
</linearGradient>
<linearGradient id="paint10_linear_48_121" x1="31.8409" y1="9.67053" x2="31.8409" y2="10.6705" gradientUnits="userSpaceOnUse">
<stop stop-color="#FFFEDA"/>
<stop offset="1" stop-color="#FFFEDA" stop-opacity="0.59"/>
</linearGradient>
<linearGradient id="paint11_linear_48_121" x1="50.3409" y1="14.6705" x2="50.3409" y2="16.6705" gradientUnits="userSpaceOnUse">
<stop stop-color="#FFFEDA"/>
<stop offset="1" stop-color="#FFFEDA" stop-opacity="0.59"/>
</linearGradient>
</defs>
</svg>
